# xmcd
#
# Track frame offsets: 
#        150
#        12890
#        44056
#        62644
#        81153
#        104604
#        127968
#        150949
#        165592
#        209093
#
# Disc length: 3515 seconds
#
# Revision: 0
# Processed by: cddbd v1.5.2PL0 Copyright (c) Steve Scherf et al.
# Submitted via: ExactAudioCopy v1.0b1
#
DISCID=810db90a
DTITLE=The Veldman Brothers - 5th Anniversary Live Tour 2009
DYEAR=2009
DGENRE=Blues
TTITLE0=Harponized
TTITLE1=One More Chance
TTITLE2=Waitin' All Night
TTITLE3=Let Me Love You Baby
TTITLE4=All Those People
TTITLE5=Tell Me What T'd Say
TTITLE6=This Pain
TTITLE7=Statesboro Blues
TTITLE8=Bleeding Heart
TTITLE9=Who Knows
EXTD=
EXTT0=
EXTT1=
EXTT2=
EXTT3=
EXTT4=
EXTT5=
EXTT6=
EXTT7=
EXTT8=
EXTT9=
PLAYORDER=
